<svg xmlns="http://www.w3.org/2000/svg" xmlns:xlink="http://www.w3.org/1999/xlink" width="1198" zoomAndPan="magnify" viewBox="0 0 898.5 248.999984" height="332" preserveAspectRatio="xMidYMid meet" version="1.0"><defs><g/><clipPath id="db37e1a62e"><path d="M 221.949219 50.652344 L 369.648438 50.652344 L 369.648438 198.347656 L 221.949219 198.347656 Z M 221.949219 50.652344 " clip-rule="nonzero"/></clipPath><clipPath id="85cc90504e"><path d="M 233.941406 50.652344 L 357.652344 50.652344 C 360.835938 50.652344 363.886719 51.914062 366.132812 54.164062 C 368.382812 56.414062 369.648438 59.464844 369.648438 62.644531 L 369.648438 186.355469 C 369.648438 189.535156 368.382812 192.585938 366.132812 194.835938 C 363.886719 197.085938 360.835938 198.347656 357.652344 198.347656 L 233.941406 198.347656 C 230.761719 198.347656 227.710938 197.085938 225.460938 194.835938 C 223.214844 192.585938 221.949219 189.535156 221.949219 186.355469 L 221.949219 62.644531 C 221.949219 59.464844 223.214844 56.414062 225.460938 54.164062 C 227.710938 51.914062 230.761719 50.652344 233.941406 50.652344 Z M 233.941406 50.652344 " clip-rule="nonzero"/></clipPath><linearGradient x1="128" gradientTransform="matrix(0.576943, 0, 0, 0.576943, 221.949729, 50.651298)" y1="-0.00000226718" x2="128" gradientUnits="userSpaceOnUse" y2="255.999992" id="6ca9c9fb5b"><stop stop-opacity="1" stop-color="rgb(98.399353%, 32.899475%, 42.399597%)" offset="0"/><stop stop-opacity="1" stop-color="rgb(98.396301%, 32.76825%, 42.266846%)" offset="0.015625"/><stop stop-opacity="1" stop-color="rgb(98.390198%, 32.505798%, 42.002869%)" offset="0.03125"/><stop stop-opacity="1" stop-color="rgb(98.384094%, 32.243347%, 41.738892%)" offset="0.046875"/><stop stop-opacity="1" stop-color="rgb(98.377991%, 31.980896%, 41.474915%)" offset="0.0625"/><stop stop-opacity="1" stop-color="rgb(98.370361%, 31.718445%, 41.210938%)" offset="0.078125"/><stop stop-opacity="1" stop-color="rgb(98.364258%, 31.455994%, 40.945435%)" offset="0.09375"/><stop stop-opacity="1" stop-color="rgb(98.358154%, 31.193542%, 40.681458%)" offset="0.109375"/><stop stop-opacity="1" stop-color="rgb(98.352051%, 30.931091%, 40.41748%)" offset="0.125"/><stop stop-opacity="1" stop-color="rgb(98.345947%, 30.66864%, 40.153503%)" offset="0.140625"/><stop stop-opacity="1" stop-color="rgb(98.339844%, 30.406189%, 39.889526%)" offset="0.15625"/><stop stop-opacity="1" stop-color="rgb(98.33374%, 30.142212%, 39.625549%)" offset="0.171875"/><stop stop-opacity="1" stop-color="rgb(98.327637%, 29.879761%, 39.361572%)" offset="0.1875"/><stop stop-opacity="1" stop-color="rgb(98.321533%, 29.61731%, 39.097595%)" offset="0.203125"/><stop stop-opacity="1" stop-color="rgb(98.31543%, 29.354858%, 38.833618%)" offset="0.21875"/><stop stop-opacity="1" stop-color="rgb(98.3078%, 29.092407%, 38.569641%)" offset="0.234375"/><stop stop-opacity="1" stop-color="rgb(98.301697%, 28.829956%, 38.305664%)" offset="0.25"/><stop stop-opacity="1" stop-color="rgb(98.295593%, 28.567505%, 38.041687%)" offset="0.265625"/><stop stop-opacity="1" stop-color="rgb(98.28949%, 28.305054%, 37.77771%)" offset="0.28125"/><stop stop-opacity="1" stop-color="rgb(98.283386%, 28.042603%, 37.513733%)" offset="0.296875"/><stop stop-opacity="1" stop-color="rgb(98.277283%, 27.780151%, 37.249756%)" offset="0.3125"/><stop stop-opacity="1" stop-color="rgb(98.271179%, 27.5177%, 36.985779%)" offset="0.328125"/><stop stop-opacity="1" stop-color="rgb(98.265076%, 27.255249%, 36.721802%)" offset="0.34375"/><stop stop-opacity="1" stop-color="rgb(98.258972%, 26.992798%, 36.457825%)" offset="0.359375"/><stop stop-opacity="1" stop-color="rgb(98.252869%, 26.730347%, 36.192322%)" offset="0.375"/><stop stop-opacity="1" stop-color="rgb(98.246765%, 26.467896%, 35.928345%)" offset="0.390625"/><stop stop-opacity="1" stop-color="rgb(98.239136%, 26.205444%, 35.664368%)" offset="0.40625"/><stop stop-opacity="1" stop-color="rgb(98.233032%, 25.942993%, 35.400391%)" offset="0.421875"/><stop stop-opacity="1" stop-color="rgb(98.226929%, 25.680542%, 35.136414%)" offset="0.4375"/><stop stop-opacity="1" stop-color="rgb(98.220825%, 25.418091%, 34.872437%)" offset="0.453125"/><stop stop-opacity="1" stop-color="rgb(98.214722%, 25.15564%, 34.608459%)" offset="0.46875"/><stop stop-opacity="1" stop-color="rgb(98.208618%, 24.893188%, 34.344482%)" offset="0.484375"/><stop stop-opacity="1" stop-color="rgb(98.202515%, 24.630737%, 34.080505%)" offset="0.5"/><stop stop-opacity="1" stop-color="rgb(98.196411%, 24.368286%, 33.816528%)" offset="0.515625"/><stop stop-opacity="1" stop-color="rgb(98.190308%, 24.105835%, 33.552551%)" offset="0.53125"/><stop stop-opacity="1" stop-color="rgb(98.184204%, 23.843384%, 33.288574%)" offset="0.546875"/><stop stop-opacity="1" stop-color="rgb(98.176575%, 23.580933%, 33.024597%)" offset="0.5625"/><stop stop-opacity="1" stop-color="rgb(98.170471%, 23.318481%, 32.76062%)" offset="0.578125"/><stop stop-opacity="1" stop-color="rgb(98.164368%, 23.05603%, 32.496643%)" offset="0.59375"/><stop stop-opacity="1" stop-color="rgb(98.158264%, 22.793579%, 32.232666%)" offset="0.609375"/><stop stop-opacity="1" stop-color="rgb(98.152161%, 22.531128%, 31.968689%)" offset="0.625"/><stop stop-opacity="1" stop-color="rgb(98.146057%, 22.268677%, 31.704712%)" offset="0.640625"/><stop stop-opacity="1" stop-color="rgb(98.139954%, 22.006226%, 31.439209%)" offset="0.65625"/><stop stop-opacity="1" stop-color="rgb(98.13385%, 21.742249%, 31.175232%)" offset="0.671875"/><stop stop-opacity="1" stop-color="rgb(98.127747%, 21.479797%, 30.911255%)" offset="0.6875"/><stop stop-opacity="1" stop-color="rgb(98.121643%, 21.217346%, 30.647278%)" offset="0.703125"/><stop stop-opacity="1" stop-color="rgb(98.11554%, 20.954895%, 30.383301%)" offset="0.71875"/><stop stop-opacity="1" stop-color="rgb(98.10791%, 20.692444%, 30.119324%)" offset="0.734375"/><stop stop-opacity="1" stop-color="rgb(98.101807%, 20.429993%, 29.855347%)" offset="0.75"/><stop stop-opacity="1" stop-color="rgb(98.095703%, 20.167542%, 29.59137%)" offset="0.765625"/><stop stop-opacity="1" stop-color="rgb(98.0896%, 19.90509%, 29.327393%)" offset="0.78125"/><stop stop-opacity="1" stop-color="rgb(98.083496%, 19.642639%, 29.063416%)" offset="0.796875"/><stop stop-opacity="1" stop-color="rgb(98.077393%, 19.380188%, 28.799438%)" offset="0.8125"/><stop stop-opacity="1" stop-color="rgb(98.071289%, 19.117737%, 28.535461%)" offset="0.828125"/><stop stop-opacity="1" stop-color="rgb(98.065186%, 18.855286%, 28.271484%)" offset="0.84375"/><stop stop-opacity="1" stop-color="rgb(98.059082%, 18.592834%, 28.007507%)" offset="0.859375"/><stop stop-opacity="1" stop-color="rgb(98.052979%, 18.330383%, 27.74353%)" offset="0.875"/><stop stop-opacity="1" stop-color="rgb(98.045349%, 18.067932%, 27.479553%)" offset="0.890625"/><stop stop-opacity="1" stop-color="rgb(98.039246%, 17.805481%, 27.215576%)" offset="0.90625"/><stop stop-opacity="1" stop-color="rgb(98.033142%, 17.54303%, 26.951599%)" offset="0.921875"/><stop stop-opacity="1" stop-color="rgb(98.027039%, 17.280579%, 26.686096%)" offset="0.9375"/><stop stop-opacity="1" stop-color="rgb(98.020935%, 17.018127%, 26.422119%)" offset="0.953125"/><stop stop-opacity="1" stop-color="rgb(98.014832%, 16.755676%, 26.158142%)" offset="0.96875"/><stop stop-opacity="1" stop-color="rgb(98.008728%, 16.493225%, 25.894165%)" offset="0.984375"/><stop stop-opacity="1" stop-color="rgb(98.002625%, 16.230774%, 25.630188%)" offset="1"/></linearGradient><clipPath id="a17a5c383f"><path d="M 272 96 L 319.757812 96 L 319.757812 152.878906 L 272 152.878906 Z M 272 96 " clip-rule="nonzero"/></clipPath></defs><g clip-path="url(#db37e1a62e)"><g clip-path="url(#85cc90504e)"><path fill="url(#6ca9c9fb5b)" d="M 221.949219 50.652344 L 221.949219 198.347656 L 369.648438 198.347656 L 369.648438 50.652344 Z M 221.949219 50.652344 " fill-rule="nonzero"/></g></g><g clip-path="url(#a17a5c383f)"><path fill="#ffffff" d="M 309.820312 122.453125 C 304.359375 122.453125 299.910156 126.882812 299.910156 132.34375 C 299.910156 137.804688 304.359375 142.234375 309.820312 142.234375 C 315.074219 142.234375 319.359375 138.097656 319.652344 132.894531 C 319.691406 132.730469 319.707031 98.851562 319.707031 98.851562 C 319.707031 97.96875 319.304688 97.140625 318.585938 96.628906 C 317.886719 96.113281 316.96875 95.964844 316.140625 96.222656 L 288.273438 104.882812 C 287.117188 105.25 286.34375 106.316406 286.34375 107.527344 L 286.34375 134.347656 C 285.003906 133.683594 283.53125 133.28125 281.953125 133.28125 C 276.492188 133.28125 272.0625 137.730469 272.0625 143.1875 C 272.0625 148.628906 276.492188 153.078125 281.953125 153.078125 C 287.226562 153.078125 291.492188 148.921875 291.785156 143.738281 C 291.824219 143.554688 291.859375 120.339844 291.859375 120.339844 L 314.195312 113.390625 L 314.195312 123.519531 C 312.871094 122.859375 311.398438 122.453125 309.820312 122.453125 Z M 309.820312 122.453125 " fill-opacity="1" fill-rule="nonzero"/></g><path stroke-linecap="butt" transform="matrix(2.409818, 0, 0, 2.409818, 398.846147, 66.664338)" fill="none" stroke-linejoin="miter" d="M 7.700248 36.000072 L 3.215016 36.000072 L 3.215016 11.257542 L 9.612996 11.257542 L 15.874814 29.449721 L 16.229807 29.449721 L 22.457585 11.257542 L 28.703193 11.257542 L 28.703193 36.000072 L 24.06559 36.000072 L 24.06559 19.65094 L 23.642516 19.58448 L 17.922103 36.000072 L 13.843735 36.000072 L 8.123322 19.58448 L 7.700248 19.65094 Z M 45.047463 36.355065 C 41.640178 36.355065 39.113081 35.5462 37.466173 33.926848 C 35.819264 32.307496 34.99581 29.906835 34.99581 26.726486 L 34.99581 11.257542 L 39.784164 11.257542 L 39.784164 26.692446 C 39.784164 28.496589 40.218585 29.851722 41.087426 30.752983 C 41.956268 31.655865 43.275739 32.108116 45.047463 32.108116 C 48.556869 32.108116 50.310762 30.302353 50.310762 26.692446 L 50.310762 11.257542 L 55.100737 11.257542 L 55.100737 26.726486 C 55.100737 29.906835 54.277282 32.307496 52.630374 33.926848 C 50.981845 35.5462 48.454748 36.355065 45.047463 36.355065 Z M 69.127015 36.355065 C 67.412026 36.355065 65.88669 36.144339 64.549388 35.721265 C 63.212085 35.298191 62.098477 34.742197 61.206941 34.053284 C 60.315406 33.365991 59.632977 32.608997 59.159653 31.785543 L 61.850468 28.503073 L 62.273542 28.503073 C 63.017568 29.608576 63.962595 30.488765 65.108623 31.143638 C 66.25303 31.79689 67.593575 32.124326 69.127015 32.124326 C 70.436761 32.124326 71.423934 31.848761 72.088532 31.294388 C 72.754752 30.741636 73.087052 29.9814 73.087052 29.010437 C 73.087052 28.423645 72.980068 27.93249 72.766099 27.538594 C 72.552131 27.143077 72.197138 26.804293 71.699499 26.522244 C 71.203481 26.240195 70.532398 25.99867 69.686251 25.794427 L 66.504281 25.06661 C 64.281927 24.559246 62.625293 23.71634 61.53762 22.537893 C 60.448326 21.357824 59.903679 19.826005 59.903679 17.942434 C 59.903679 16.543535 60.253809 15.313216 60.95407 14.2531 C 61.652709 13.192984 62.67068 12.367909 64.007983 11.782737 C 65.345285 11.195945 66.943565 10.902549 68.806062 10.902549 C 70.712326 10.902549 72.346267 11.1538 73.704642 11.654681 C 75.064639 12.157182 76.212287 12.927144 77.14921 13.964567 L 74.729097 17.282698 L 74.306023 17.282698 C 73.607384 16.548398 72.805002 15.998888 71.903742 15.632548 C 71.00086 15.266208 69.9683 15.081417 68.806062 15.081417 C 67.463897 15.081417 66.442684 15.3197 65.742424 15.793024 C 65.043784 16.266348 64.693654 16.921222 64.693654 17.756023 C 64.693654 18.53409 64.938421 19.154922 65.429576 19.61852 C 65.920731 20.080498 66.77012 20.441975 67.976124 20.70133 L 71.226175 21.377276 C 73.630078 21.886261 75.372624 22.745377 76.455433 23.959486 C 77.538243 25.171973 78.079648 26.754043 78.079648 28.705694 C 78.079648 30.252103 77.747349 31.59751 77.081129 32.741917 C 76.41653 33.887945 75.411527 34.776238 74.069361 35.408417 C 72.727196 36.038976 71.078666 36.355065 69.127015 36.355065 Z M 87.521815 36.000072 L 82.629719 36.000072 L 82.629719 11.257542 L 87.521815 11.257542 Z M 104.27457 36.355065 C 101.995482 36.355065 99.987097 35.881741 98.249414 34.933472 C 96.511731 33.986824 95.153356 32.561989 94.171046 30.660588 C 93.190357 28.759186 92.699203 26.41526 92.699203 23.628807 C 92.699203 20.842355 93.190357 18.498428 94.171046 16.597027 C 95.153356 14.695626 96.511731 13.270791 98.249414 12.324142 C 99.987097 11.375873 101.995482 10.902549 104.27457 10.902549 C 106.655779 10.902549 108.677132 11.367768 110.341872 12.298207 C 112.006611 13.228645 113.193163 14.646997 113.90477 16.554882 L 110.333767 18.738332 L 109.910693 18.720501 C 109.380635 17.43507 108.660923 16.512736 107.753178 15.953501 C 106.843812 15.395886 105.684816 15.115458 104.27457 15.115458 C 102.220797 15.115458 100.619276 15.796266 99.468385 17.154642 C 98.317495 18.514638 97.742049 20.672153 97.742049 23.628807 C 97.742049 26.574115 98.317495 28.725146 99.468385 30.085142 C 100.619276 31.445139 102.220797 32.124326 104.27457 32.124326 C 107.49058 32.124326 109.458441 30.561708 110.181395 27.436473 L 110.604469 27.436473 L 114.209513 29.31518 C 113.531946 31.662349 112.376192 33.422725 110.73901 34.594689 C 109.103448 35.768273 106.949175 36.355065 104.27457 36.355065 Z M 104.27457 36.355065 " stroke="#000000" stroke-width="2.166669" stroke-opacity="1" stroke-miterlimit="4"/><g fill="#000000" fill-opacity="1"><g transform="translate(398.846147, 153.417794)"><g><path d="M 18.5625 0 L 7.75 0 L 7.75 -59.625 L 23.171875 -59.625 L 38.265625 -15.78125 L 39.109375 -15.78125 L 54.125 -59.625 L 69.171875 -59.625 L 69.171875 0 L 58 0 L 58 -39.40625 L 56.984375 -39.5625 L 43.1875 0 L 33.359375 0 L 19.578125 -39.5625 L 18.5625 -39.40625 Z M 18.5625 0 "/></g></g></g><g fill="#000000" fill-opacity="1"><g transform="translate(475.796, 153.417794)"><g><path d="M 31.609375 0.859375 C 23.398438 0.859375 17.304688 -1.085938 13.328125 -4.984375 C 9.359375 -8.890625 7.375 -14.675781 7.375 -22.34375 L 7.375 -59.625 L 18.921875 -59.625 L 18.921875 -22.4375 C 18.921875 -18.082031 19.96875 -14.816406 22.0625 -12.640625 C 24.15625 -10.460938 27.335938 -9.375 31.609375 -9.375 C 40.066406 -9.375 44.296875 -13.726562 44.296875 -22.4375 L 44.296875 -59.625 L 55.84375 -59.625 L 55.84375 -22.34375 C 55.84375 -14.675781 53.851562 -8.890625 49.875 -4.984375 C 45.90625 -1.085938 39.816406 0.859375 31.609375 0.859375 Z M 31.609375 0.859375 "/></g></g></g><g fill="#000000" fill-opacity="1"><g transform="translate(539.003351, 153.417794)"><g><path d="M 26.4375 0.859375 C 22.300781 0.859375 18.617188 0.347656 15.390625 -0.671875 C 12.171875 -1.691406 9.488281 -3.03125 7.34375 -4.6875 C 5.195312 -6.34375 3.550781 -8.164062 2.40625 -10.15625 L 8.890625 -18.0625 L 9.90625 -18.0625 C 11.707031 -15.40625 13.988281 -13.285156 16.75 -11.703125 C 19.507812 -10.128906 22.738281 -9.34375 26.4375 -9.34375 C 29.582031 -9.34375 31.957031 -10.007812 33.5625 -11.34375 C 35.164062 -12.675781 35.96875 -14.507812 35.96875 -16.84375 C 35.96875 -18.257812 35.707031 -19.441406 35.1875 -20.390625 C 34.675781 -21.347656 33.820312 -22.164062 32.625 -22.84375 C 31.425781 -23.519531 29.8125 -24.101562 27.78125 -24.59375 L 20.109375 -26.34375 C 14.753906 -27.570312 10.765625 -29.601562 8.140625 -32.4375 C 5.515625 -35.28125 4.203125 -38.972656 4.203125 -43.515625 C 4.203125 -46.890625 5.046875 -49.851562 6.734375 -52.40625 C 8.421875 -54.96875 10.875 -56.953125 14.09375 -58.359375 C 17.3125 -59.773438 21.164062 -60.484375 25.65625 -60.484375 C 30.25 -60.484375 34.179688 -59.878906 37.453125 -58.671875 C 40.734375 -57.460938 43.503906 -55.609375 45.765625 -53.109375 L 39.9375 -45.109375 L 38.90625 -45.109375 C 37.21875 -46.878906 35.285156 -48.203125 33.109375 -49.078125 C 30.941406 -49.960938 28.457031 -50.40625 25.65625 -50.40625 C 22.414062 -50.40625 19.953125 -49.832031 18.265625 -48.6875 C 16.585938 -47.550781 15.75 -45.976562 15.75 -43.96875 C 15.75 -42.09375 16.335938 -40.597656 17.515625 -39.484375 C 18.703125 -38.367188 20.75 -37.5 23.65625 -36.875 L 31.484375 -35.234375 C 37.273438 -34.015625 41.472656 -31.941406 44.078125 -29.015625 C 46.691406 -26.097656 48 -22.285156 48 -17.578125 C 48 -13.847656 47.195312 -10.601562 45.59375 -7.84375 C 43.988281 -5.09375 41.566406 -2.953125 38.328125 -1.421875 C 35.097656 0.0976562 31.132812 0.859375 26.4375 0.859375 Z M 26.4375 0.859375 "/></g></g></g><g fill="#000000" fill-opacity="1"><g transform="translate(590.221695, 153.417794)"><g><path d="M 19.53125 0 L 7.75 0 L 7.75 -59.625 L 19.53125 -59.625 Z M 19.53125 0 "/></g></g></g><g fill="#000000" fill-opacity="1"><g transform="translate(617.543583, 153.417794)"><g><path d="M 32.59375 0.859375 C 27.09375 0.859375 22.25 -0.28125 18.0625 -2.5625 C 13.875 -4.851562 10.597656 -8.285156 8.234375 -12.859375 C 5.867188 -17.441406 4.6875 -23.09375 4.6875 -29.8125 C 4.6875 -36.53125 5.867188 -42.179688 8.234375 -46.765625 C 10.597656 -51.347656 13.875 -54.78125 18.0625 -57.0625 C 22.25 -59.34375 27.09375 -60.484375 32.59375 -60.484375 C 38.320312 -60.484375 43.191406 -59.359375 47.203125 -57.109375 C 51.222656 -54.867188 54.085938 -51.453125 55.796875 -46.859375 L 47.1875 -41.609375 L 46.171875 -41.640625 C 44.890625 -44.742188 43.15625 -46.96875 40.96875 -48.3125 C 38.78125 -49.65625 35.988281 -50.328125 32.59375 -50.328125 C 27.644531 -50.328125 23.78125 -48.6875 21 -45.40625 C 18.226562 -42.132812 16.84375 -36.9375 16.84375 -29.8125 C 16.84375 -22.71875 18.226562 -17.53125 21 -14.25 C 23.78125 -10.976562 27.644531 -9.34375 32.59375 -9.34375 C 40.34375 -9.34375 45.085938 -13.109375 46.828125 -20.640625 L 47.84375 -20.640625 L 56.53125 -16.109375 C 54.894531 -10.453125 52.101562 -6.207031 48.15625 -3.375 C 44.21875 -0.550781 39.03125 0.859375 32.59375 0.859375 Z M 32.59375 0.859375 "/></g></g></g></svg>